<svg width="72" height="66" viewBox="0 0 72 66" fill="none" xmlns="http://www.w3.org/2000/svg">
<path fill-rule="evenodd" clip-rule="evenodd" d="M16.0858 24.0475C18.9505 30.42 18.0755 37.0288 14.1317 38.8127C10.1878 40.5967 4.66846 36.8785 1.80403 30.5072C-1.06065 24.1359 -0.185763 17.5265 3.75816 15.7429C7.70209 13.9597 13.2212 17.678 16.0858 24.0475Z" fill="#E65D13"/>
<path fill-rule="evenodd" clip-rule="evenodd" d="M55.0705 24.0475C52.2057 30.42 53.0808 37.0288 57.0249 38.8127C60.9689 40.5967 66.4877 36.8785 69.3527 30.5072C72.217 24.1359 71.342 17.5265 67.3982 15.7429C63.4546 13.9597 57.9352 17.678 55.0705 24.0475Z" fill="#E65D13"/>
<path fill-rule="evenodd" clip-rule="evenodd" d="M32.8494 11.2755C34.3178 18.1065 32.0795 24.3848 27.8502 25.2995C23.6212 26.213 19.0024 21.4159 17.5343 14.5855C16.0661 7.75455 18.3043 1.476 22.5335 0.562193C26.7627 -0.351997 31.3812 4.44447 32.8494 11.2755Z" fill="#E65D13"/>
<path fill-rule="evenodd" clip-rule="evenodd" d="M38.2018 11.2813C36.7347 18.1122 38.9714 24.3911 43.2004 25.3046C47.4296 26.2193 52.0482 21.4222 53.5163 14.5914C54.9846 7.76036 52.7466 1.48181 48.5172 0.568C44.2879 -0.345937 39.6694 4.45027 38.2018 11.2813Z" fill="#E65D13"/>
<path fill-rule="evenodd" clip-rule="evenodd" d="M27.5561 34.1104C26.5239 35.8981 21.7408 41.8158 18.4325 43.8347C15.1244 45.8536 11.0251 48.81 11.713 55.5982C12.4006 62.3876 19.345 65.2934 23.9166 65.0357C28.4884 64.7792 37.1079 63.9353 43.2618 64.7906C49.4154 65.6459 57.1822 64.9978 59.001 58.4976C60.8198 51.9975 56.752 47.8561 53.5778 45.5062C50.4037 43.1575 45.1029 36.1318 43.4698 32.9064C41.837 29.6822 33.5257 23.7771 27.5561 34.1104Z" fill="#E65D13"/>
</svg>
