<svg width="75" height="58" viewBox="0 0 75 58" fill="none" xmlns="http://www.w3.org/2000/svg">
<path d="M75 11.2186C75 12.5081 74.5484 13.6041 73.6452 14.5068L38.6129 49.5164L32.0323 56.0928C31.129 56.9955 30.0323 57.4468 28.7419 57.4468C27.4516 57.4468 26.3548 56.9955 25.4516 56.0928L18.871 49.5164L1.35484 32.0116C0.451613 31.109 0 30.0129 0 28.7234C0 27.4339 0.451613 26.3378 1.35484 25.4352L7.93548 18.8588C8.83871 17.9562 9.93548 17.5048 11.2258 17.5048C12.5161 17.5048 13.6129 17.9562 14.5161 18.8588L28.7419 33.1238L60.4839 1.35397C61.3871 0.451322 62.4839 0 63.7742 0C65.0645 0 66.1613 0.451322 67.0645 1.35397L73.6452 7.93037C74.5484 8.83301 75 9.92908 75 11.2186Z" fill="#E65D13"/>
</svg>
