<svg width="75" height="75" viewBox="0 0 75 75" fill="none" xmlns="http://www.w3.org/2000/svg">
<g clip-path="url(#clip0_116_45)">
<path d="M37.5 15C20.4545 15 5.89773 24.33 0 37.5C5.89773 50.67 20.4545 60 37.5 60C54.5455 60 69.1023 50.67 75 37.5C69.1023 24.33 54.5455 15 37.5 15ZM37.5 52.5C28.0909 52.5 20.4545 45.78 20.4545 37.5C20.4545 29.22 28.0909 22.5 37.5 22.5C46.9091 22.5 54.5455 29.22 54.5455 37.5C54.5455 45.78 46.9091 52.5 37.5 52.5ZM37.5 28.5C31.8409 28.5 27.2727 32.52 27.2727 37.5C27.2727 42.48 31.8409 46.5 37.5 46.5C43.1591 46.5 47.7273 42.48 47.7273 37.5C47.7273 32.52 43.1591 28.5 37.5 28.5Z" fill="#E65D13"/>
</g>
<defs>
<clipPath id="clip0_116_45">
<rect width="75" height="75" fill="white"/>
</clipPath>
</defs>
</svg>
