<svg width="69" height="60" viewBox="0 0 69 60" fill="none" xmlns="http://www.w3.org/2000/svg">
<path d="M41.1281 24.7499C40.5421 24.1641 39.7474 23.835 38.9188 23.835C38.0901 23.835 37.2954 24.1641 36.7094 24.7499L34.5 26.9562C33.9235 27.5531 33.2338 28.0293 32.4713 28.3568C31.7088 28.6844 30.8886 28.8568 30.0588 28.864C29.2289 28.8712 28.4059 28.7131 27.6378 28.3988C26.8697 28.0846 26.1719 27.6205 25.585 27.0337C24.9982 26.4468 24.5341 25.749 24.2199 24.9809C23.9056 24.2128 23.7475 23.3898 23.7547 22.5599C23.7619 21.7301 23.9343 20.9099 24.2619 20.1474C24.5894 19.3849 25.0656 18.6952 25.6625 18.1187L43.2563 0.518699C47.4216 -0.428719 51.7797 -0.0388063 55.7108 1.63299C59.6418 3.30479 62.9457 6.17338 65.1528 9.83086C67.3598 13.4883 68.3575 17.7485 68.0042 22.0057C67.6508 26.2628 65.9642 30.3002 63.1844 33.5437L56.5969 40.2156L41.1281 24.7468V24.7499ZM6.87813 5.96245C10.1118 2.72925 14.3413 0.681133 18.883 0.149218C23.4247 -0.382697 28.0131 0.632684 31.9063 3.0312L21.2406 13.6999C18.9306 16.0053 17.6139 19.1228 17.5717 22.3861C17.5295 25.6494 18.7653 28.7998 21.0149 31.1641C23.2646 33.5284 26.3497 34.9192 29.6111 35.0392C32.8725 35.1591 36.0515 33.9988 38.4688 31.8062L38.9188 31.3781L52.1781 44.6343L38.9188 57.8937C37.7467 59.0654 36.1573 59.7236 34.5 59.7236C32.8427 59.7236 31.2533 59.0654 30.0813 57.8937L6.875 34.6874C3.06604 30.8782 0.926216 25.7119 0.926216 20.3249C0.926216 14.938 3.06604 9.77173 6.875 5.96245H6.87813Z" fill="#E65D13"/>
</svg>
